<mxfile host="app.diagrams.net" modified="2020-07-20T17:37:15.195Z" agent="5.0 (X11)" etag="XkDEnpahLK0p_WVzLrnQ" version="13.4.4" type="github">
  <diagram id="CCz6Jtgrd6yBdg9yYhOi" name="Page-1">
    <mxGraphModel dx="2465" dy="974" grid="1" gridSize="10" guides="1" tooltips="1" connect="1" arrows="1" fold="1" page="1" pageScale="1" pageWidth="827" pageHeight="1169" math="0" shadow="0">
      <root>
        <mxCell id="0" />
        <mxCell id="1" parent="0" />
        <mxCell id="2hZfPi2KIrLaFZIVcfu8-1" value="&lt;b&gt;&lt;i&gt;login:&lt;/i&gt;&lt;/b&gt;" style="text;html=1;strokeColor=none;fillColor=none;align=center;verticalAlign=middle;whiteSpace=wrap;rounded=0;" parent="1" vertex="1">
          <mxGeometry x="-40" y="50" width="200" height="20" as="geometry" />
        </mxCell>
        <mxCell id="2hZfPi2KIrLaFZIVcfu8-3" value="0" style="rounded=0;whiteSpace=wrap;html=1;" parent="1" vertex="1">
          <mxGeometry x="200" y="40" width="80" height="40" as="geometry" />
        </mxCell>
        <mxCell id="2hZfPi2KIrLaFZIVcfu8-4" value="opcode:" style="text;html=1;strokeColor=none;fillColor=none;align=center;verticalAlign=middle;whiteSpace=wrap;rounded=0;" parent="1" vertex="1">
          <mxGeometry x="200" y="20" width="80" height="20" as="geometry" />
        </mxCell>
        <mxCell id="2hZfPi2KIrLaFZIVcfu8-5" value="1 byte" style="text;html=1;strokeColor=none;fillColor=none;align=center;verticalAlign=middle;whiteSpace=wrap;rounded=0;" parent="1" vertex="1">
          <mxGeometry x="200" y="80" width="80" height="20" as="geometry" />
        </mxCell>
        <mxCell id="2hZfPi2KIrLaFZIVcfu8-9" value="" style="rounded=0;whiteSpace=wrap;html=1;" parent="1" vertex="1">
          <mxGeometry x="280" y="40" width="80" height="40" as="geometry" />
        </mxCell>
        <mxCell id="2hZfPi2KIrLaFZIVcfu8-10" value="len" style="text;html=1;strokeColor=none;fillColor=none;align=center;verticalAlign=middle;whiteSpace=wrap;rounded=0;" parent="1" vertex="1">
          <mxGeometry x="280" y="20" width="80" height="20" as="geometry" />
        </mxCell>
        <mxCell id="2hZfPi2KIrLaFZIVcfu8-11" value="1 byte" style="text;html=1;strokeColor=none;fillColor=none;align=center;verticalAlign=middle;whiteSpace=wrap;rounded=0;" parent="1" vertex="1">
          <mxGeometry x="280" y="80" width="80" height="20" as="geometry" />
        </mxCell>
        <mxCell id="2hZfPi2KIrLaFZIVcfu8-12" value="&lt;i&gt;$username&lt;/i&gt;" style="rounded=0;whiteSpace=wrap;html=1;" parent="1" vertex="1">
          <mxGeometry x="360" y="40" width="170" height="40" as="geometry" />
        </mxCell>
        <mxCell id="2hZfPi2KIrLaFZIVcfu8-13" value="data" style="text;html=1;strokeColor=none;fillColor=none;align=center;verticalAlign=middle;whiteSpace=wrap;rounded=0;" parent="1" vertex="1">
          <mxGeometry x="360" y="20" width="170" height="20" as="geometry" />
        </mxCell>
        <mxCell id="2hZfPi2KIrLaFZIVcfu8-14" value="&lt;b&gt;&lt;i&gt;signature_message:&lt;/i&gt;&lt;/b&gt;" style="text;html=1;strokeColor=none;fillColor=none;align=center;verticalAlign=middle;whiteSpace=wrap;rounded=0;" parent="1" vertex="1">
          <mxGeometry x="-40" y="170" width="200" height="20" as="geometry" />
        </mxCell>
        <mxCell id="2hZfPi2KIrLaFZIVcfu8-16" value="opcode:" style="text;html=1;strokeColor=none;fillColor=none;align=center;verticalAlign=middle;whiteSpace=wrap;rounded=0;" parent="1" vertex="1">
          <mxGeometry x="200" y="140" width="80" height="20" as="geometry" />
        </mxCell>
        <mxCell id="2hZfPi2KIrLaFZIVcfu8-17" value="1" style="rounded=0;whiteSpace=wrap;html=1;" parent="1" vertex="1">
          <mxGeometry x="200" y="160" width="80" height="40" as="geometry" />
        </mxCell>
        <mxCell id="2hZfPi2KIrLaFZIVcfu8-18" value="1 byte" style="text;html=1;strokeColor=none;fillColor=none;align=center;verticalAlign=middle;whiteSpace=wrap;rounded=0;" parent="1" vertex="1">
          <mxGeometry x="200" y="200" width="80" height="20" as="geometry" />
        </mxCell>
        <mxCell id="2hZfPi2KIrLaFZIVcfu8-19" value="random data" style="text;html=1;strokeColor=none;fillColor=none;align=center;verticalAlign=middle;whiteSpace=wrap;rounded=0;" parent="1" vertex="1">
          <mxGeometry x="440" y="140" width="320" height="20" as="geometry" />
        </mxCell>
        <mxCell id="2hZfPi2KIrLaFZIVcfu8-20" value="" style="rounded=0;whiteSpace=wrap;html=1;" parent="1" vertex="1">
          <mxGeometry x="440" y="160" width="320" height="40" as="geometry" />
        </mxCell>
        <mxCell id="2hZfPi2KIrLaFZIVcfu8-21" value="16 byte" style="text;html=1;strokeColor=none;fillColor=none;align=center;verticalAlign=middle;whiteSpace=wrap;rounded=0;" parent="1" vertex="1">
          <mxGeometry x="560" y="200" width="80" height="20" as="geometry" />
        </mxCell>
        <mxCell id="2hZfPi2KIrLaFZIVcfu8-22" value="&lt;i&gt;&lt;b&gt;certificate:&lt;/b&gt;&lt;/i&gt;" style="text;html=1;strokeColor=none;fillColor=none;align=center;verticalAlign=middle;whiteSpace=wrap;rounded=0;" parent="1" vertex="1">
          <mxGeometry x="-40" y="290" width="200" height="20" as="geometry" />
        </mxCell>
        <mxCell id="2hZfPi2KIrLaFZIVcfu8-23" value="opcode:" style="text;html=1;strokeColor=none;fillColor=none;align=center;verticalAlign=middle;whiteSpace=wrap;rounded=0;" parent="1" vertex="1">
          <mxGeometry x="200" y="260" width="80" height="20" as="geometry" />
        </mxCell>
        <mxCell id="2hZfPi2KIrLaFZIVcfu8-24" value="2" style="rounded=0;whiteSpace=wrap;html=1;" parent="1" vertex="1">
          <mxGeometry x="200" y="280" width="80" height="40" as="geometry" />
        </mxCell>
        <mxCell id="2hZfPi2KIrLaFZIVcfu8-25" value="1 byte" style="text;html=1;strokeColor=none;fillColor=none;align=center;verticalAlign=middle;whiteSpace=wrap;rounded=0;" parent="1" vertex="1">
          <mxGeometry x="200" y="320" width="80" height="20" as="geometry" />
        </mxCell>
        <mxCell id="2hZfPi2KIrLaFZIVcfu8-26" value="certificate_len:" style="text;html=1;strokeColor=none;fillColor=none;align=center;verticalAlign=middle;whiteSpace=wrap;rounded=0;" parent="1" vertex="1">
          <mxGeometry x="280" y="140" width="160" height="20" as="geometry" />
        </mxCell>
        <mxCell id="2hZfPi2KIrLaFZIVcfu8-27" value="" style="rounded=0;whiteSpace=wrap;html=1;" parent="1" vertex="1">
          <mxGeometry x="280" y="160" width="160" height="40" as="geometry" />
        </mxCell>
        <mxCell id="2hZfPi2KIrLaFZIVcfu8-28" value="4 byte" style="text;html=1;strokeColor=none;fillColor=none;align=center;verticalAlign=middle;whiteSpace=wrap;rounded=0;" parent="1" vertex="1">
          <mxGeometry x="280" y="200" width="160" height="20" as="geometry" />
        </mxCell>
        <mxCell id="2hZfPi2KIrLaFZIVcfu8-29" value="&lt;b&gt;&lt;i&gt;available_user_list:&lt;/i&gt;&lt;/b&gt;" style="text;html=1;strokeColor=none;fillColor=none;align=center;verticalAlign=middle;whiteSpace=wrap;rounded=0;" parent="1" vertex="1">
          <mxGeometry x="-40" y="410" width="200" height="20" as="geometry" />
        </mxCell>
        <mxCell id="2hZfPi2KIrLaFZIVcfu8-30" value="opcode:" style="text;html=1;strokeColor=none;fillColor=none;align=center;verticalAlign=middle;whiteSpace=wrap;rounded=0;" parent="1" vertex="1">
          <mxGeometry x="200" y="380" width="80" height="20" as="geometry" />
        </mxCell>
        <mxCell id="2hZfPi2KIrLaFZIVcfu8-31" value="3" style="rounded=0;whiteSpace=wrap;html=1;" parent="1" vertex="1">
          <mxGeometry x="200" y="400" width="80" height="40" as="geometry" />
        </mxCell>
        <mxCell id="2hZfPi2KIrLaFZIVcfu8-32" value="1 byte" style="text;html=1;strokeColor=none;fillColor=none;align=center;verticalAlign=middle;whiteSpace=wrap;rounded=0;" parent="1" vertex="1">
          <mxGeometry x="200" y="440" width="80" height="20" as="geometry" />
        </mxCell>
        <mxCell id="2hZfPi2KIrLaFZIVcfu8-33" value="seq. #" style="text;html=1;strokeColor=none;fillColor=none;align=center;verticalAlign=middle;whiteSpace=wrap;rounded=0;" parent="1" vertex="1">
          <mxGeometry x="280" y="380" width="80" height="20" as="geometry" />
        </mxCell>
        <mxCell id="2hZfPi2KIrLaFZIVcfu8-34" value="" style="rounded=0;whiteSpace=wrap;html=1;" parent="1" vertex="1">
          <mxGeometry x="280" y="400" width="80" height="40" as="geometry" />
        </mxCell>
        <mxCell id="2hZfPi2KIrLaFZIVcfu8-35" value="1 byte" style="text;html=1;strokeColor=none;fillColor=none;align=center;verticalAlign=middle;whiteSpace=wrap;rounded=0;" parent="1" vertex="1">
          <mxGeometry x="280" y="440" width="80" height="20" as="geometry" />
        </mxCell>
        <mxCell id="2hZfPi2KIrLaFZIVcfu8-39" value="&lt;i&gt;$username1,$username2,...&lt;/i&gt;" style="rounded=0;whiteSpace=wrap;html=1;" parent="1" vertex="1">
          <mxGeometry x="510" y="400" width="200" height="40" as="geometry" />
        </mxCell>
        <mxCell id="2hZfPi2KIrLaFZIVcfu8-40" value="data" style="text;html=1;strokeColor=none;fillColor=none;align=center;verticalAlign=middle;whiteSpace=wrap;rounded=0;" parent="1" vertex="1">
          <mxGeometry x="510" y="380" width="200" height="20" as="geometry" />
        </mxCell>
        <mxCell id="2hZfPi2KIrLaFZIVcfu8-41" value="&lt;i&gt;&lt;b&gt;challenge_request:&lt;/b&gt;&lt;/i&gt;" style="text;html=1;strokeColor=none;fillColor=none;align=center;verticalAlign=middle;whiteSpace=wrap;rounded=0;" parent="1" vertex="1">
          <mxGeometry x="-40" y="530" width="200" height="20" as="geometry" />
        </mxCell>
        <mxCell id="2hZfPi2KIrLaFZIVcfu8-42" value="opcode:" style="text;html=1;strokeColor=none;fillColor=none;align=center;verticalAlign=middle;whiteSpace=wrap;rounded=0;" parent="1" vertex="1">
          <mxGeometry x="200" y="500" width="80" height="20" as="geometry" />
        </mxCell>
        <mxCell id="2hZfPi2KIrLaFZIVcfu8-43" value="4" style="rounded=0;whiteSpace=wrap;html=1;" parent="1" vertex="1">
          <mxGeometry x="200" y="520" width="80" height="40" as="geometry" />
        </mxCell>
        <mxCell id="2hZfPi2KIrLaFZIVcfu8-44" value="1 byte" style="text;html=1;strokeColor=none;fillColor=none;align=center;verticalAlign=middle;whiteSpace=wrap;rounded=0;" parent="1" vertex="1">
          <mxGeometry x="200" y="560" width="80" height="20" as="geometry" />
        </mxCell>
        <mxCell id="2hZfPi2KIrLaFZIVcfu8-45" value="seq. #" style="text;html=1;strokeColor=none;fillColor=none;align=center;verticalAlign=middle;whiteSpace=wrap;rounded=0;" parent="1" vertex="1">
          <mxGeometry x="280" y="500" width="80" height="20" as="geometry" />
        </mxCell>
        <mxCell id="2hZfPi2KIrLaFZIVcfu8-46" value="" style="rounded=0;whiteSpace=wrap;html=1;" parent="1" vertex="1">
          <mxGeometry x="280" y="520" width="80" height="40" as="geometry" />
        </mxCell>
        <mxCell id="2hZfPi2KIrLaFZIVcfu8-47" value="1 byte" style="text;html=1;strokeColor=none;fillColor=none;align=center;verticalAlign=middle;whiteSpace=wrap;rounded=0;" parent="1" vertex="1">
          <mxGeometry x="280" y="560" width="80" height="20" as="geometry" />
        </mxCell>
        <mxCell id="2hZfPi2KIrLaFZIVcfu8-48" value="challenge #" style="text;html=1;strokeColor=none;fillColor=none;align=center;verticalAlign=middle;whiteSpace=wrap;rounded=0;" parent="1" vertex="1">
          <mxGeometry x="360" y="500" width="240" height="20" as="geometry" />
        </mxCell>
        <mxCell id="2hZfPi2KIrLaFZIVcfu8-49" value="" style="rounded=0;whiteSpace=wrap;html=1;" parent="1" vertex="1">
          <mxGeometry x="360" y="520" width="240" height="40" as="geometry" />
        </mxCell>
        <mxCell id="2hZfPi2KIrLaFZIVcfu8-50" value="4 byte" style="text;html=1;strokeColor=none;fillColor=none;align=center;verticalAlign=middle;whiteSpace=wrap;rounded=0;" parent="1" vertex="1">
          <mxGeometry x="360" y="560" width="240" height="20" as="geometry" />
        </mxCell>
        <mxCell id="2hZfPi2KIrLaFZIVcfu8-51" value="len" style="text;html=1;strokeColor=none;fillColor=none;align=center;verticalAlign=middle;whiteSpace=wrap;rounded=0;" parent="1" vertex="1">
          <mxGeometry x="600" y="500" width="80" height="20" as="geometry" />
        </mxCell>
        <mxCell id="2hZfPi2KIrLaFZIVcfu8-52" value="" style="rounded=0;whiteSpace=wrap;html=1;" parent="1" vertex="1">
          <mxGeometry x="600" y="520" width="80" height="40" as="geometry" />
        </mxCell>
        <mxCell id="2hZfPi2KIrLaFZIVcfu8-53" value="1 byte" style="text;html=1;strokeColor=none;fillColor=none;align=center;verticalAlign=middle;whiteSpace=wrap;rounded=0;" parent="1" vertex="1">
          <mxGeometry x="600" y="560" width="80" height="20" as="geometry" />
        </mxCell>
        <mxCell id="2hZfPi2KIrLaFZIVcfu8-54" value="data" style="text;html=1;strokeColor=none;fillColor=none;align=center;verticalAlign=middle;whiteSpace=wrap;rounded=0;" parent="1" vertex="1">
          <mxGeometry x="680" y="500" width="200" height="20" as="geometry" />
        </mxCell>
        <mxCell id="2hZfPi2KIrLaFZIVcfu8-55" value="&lt;i&gt;$username1;$username2&lt;/i&gt;" style="rounded=0;whiteSpace=wrap;html=1;" parent="1" vertex="1">
          <mxGeometry x="680" y="520" width="200" height="40" as="geometry" />
        </mxCell>
        <mxCell id="2hZfPi2KIrLaFZIVcfu8-56" value="&lt;i&gt;&lt;b&gt;challenge_accepted:&lt;/b&gt;&lt;/i&gt;" style="text;html=1;strokeColor=none;fillColor=none;align=center;verticalAlign=middle;whiteSpace=wrap;rounded=0;" parent="1" vertex="1">
          <mxGeometry x="-40" y="650" width="200" height="20" as="geometry" />
        </mxCell>
        <mxCell id="2hZfPi2KIrLaFZIVcfu8-57" value="opcode:" style="text;html=1;strokeColor=none;fillColor=none;align=center;verticalAlign=middle;whiteSpace=wrap;rounded=0;" parent="1" vertex="1">
          <mxGeometry x="200" y="620" width="80" height="20" as="geometry" />
        </mxCell>
        <mxCell id="2hZfPi2KIrLaFZIVcfu8-58" value="5" style="rounded=0;whiteSpace=wrap;html=1;" parent="1" vertex="1">
          <mxGeometry x="200" y="640" width="80" height="40" as="geometry" />
        </mxCell>
        <mxCell id="2hZfPi2KIrLaFZIVcfu8-59" value="1 byte" style="text;html=1;strokeColor=none;fillColor=none;align=center;verticalAlign=middle;whiteSpace=wrap;rounded=0;" parent="1" vertex="1">
          <mxGeometry x="200" y="680" width="80" height="20" as="geometry" />
        </mxCell>
        <mxCell id="2hZfPi2KIrLaFZIVcfu8-60" value="seq. #" style="text;html=1;strokeColor=none;fillColor=none;align=center;verticalAlign=middle;whiteSpace=wrap;rounded=0;" parent="1" vertex="1">
          <mxGeometry x="280" y="620" width="80" height="20" as="geometry" />
        </mxCell>
        <mxCell id="2hZfPi2KIrLaFZIVcfu8-61" value="" style="rounded=0;whiteSpace=wrap;html=1;" parent="1" vertex="1">
          <mxGeometry x="280" y="640" width="80" height="40" as="geometry" />
        </mxCell>
        <mxCell id="2hZfPi2KIrLaFZIVcfu8-62" value="1 byte" style="text;html=1;strokeColor=none;fillColor=none;align=center;verticalAlign=middle;whiteSpace=wrap;rounded=0;" parent="1" vertex="1">
          <mxGeometry x="280" y="680" width="80" height="20" as="geometry" />
        </mxCell>
        <mxCell id="2hZfPi2KIrLaFZIVcfu8-63" value="challenge #" style="text;html=1;strokeColor=none;fillColor=none;align=center;verticalAlign=middle;whiteSpace=wrap;rounded=0;" parent="1" vertex="1">
          <mxGeometry x="360" y="620" width="240" height="20" as="geometry" />
        </mxCell>
        <mxCell id="2hZfPi2KIrLaFZIVcfu8-64" value="" style="rounded=0;whiteSpace=wrap;html=1;" parent="1" vertex="1">
          <mxGeometry x="360" y="640" width="240" height="40" as="geometry" />
        </mxCell>
        <mxCell id="2hZfPi2KIrLaFZIVcfu8-65" value="4 byte" style="text;html=1;strokeColor=none;fillColor=none;align=center;verticalAlign=middle;whiteSpace=wrap;rounded=0;" parent="1" vertex="1">
          <mxGeometry x="360" y="680" width="240" height="20" as="geometry" />
        </mxCell>
        <mxCell id="2hZfPi2KIrLaFZIVcfu8-66" value="&lt;i&gt;&lt;b&gt;challenge_start:&lt;/b&gt;&lt;/i&gt;" style="text;html=1;strokeColor=none;fillColor=none;align=center;verticalAlign=middle;whiteSpace=wrap;rounded=0;" parent="1" vertex="1">
          <mxGeometry x="-40" y="770" width="200" height="20" as="geometry" />
        </mxCell>
        <mxCell id="2hZfPi2KIrLaFZIVcfu8-67" value="opcode:" style="text;html=1;strokeColor=none;fillColor=none;align=center;verticalAlign=middle;whiteSpace=wrap;rounded=0;" parent="1" vertex="1">
          <mxGeometry x="200" y="740" width="80" height="20" as="geometry" />
        </mxCell>
        <mxCell id="2hZfPi2KIrLaFZIVcfu8-68" value="6" style="rounded=0;whiteSpace=wrap;html=1;" parent="1" vertex="1">
          <mxGeometry x="200" y="760" width="80" height="40" as="geometry" />
        </mxCell>
        <mxCell id="2hZfPi2KIrLaFZIVcfu8-69" value="1 byte" style="text;html=1;strokeColor=none;fillColor=none;align=center;verticalAlign=middle;whiteSpace=wrap;rounded=0;" parent="1" vertex="1">
          <mxGeometry x="200" y="800" width="80" height="20" as="geometry" />
        </mxCell>
        <mxCell id="2hZfPi2KIrLaFZIVcfu8-70" value="seq. #" style="text;html=1;strokeColor=none;fillColor=none;align=center;verticalAlign=middle;whiteSpace=wrap;rounded=0;" parent="1" vertex="1">
          <mxGeometry x="280" y="740" width="80" height="20" as="geometry" />
        </mxCell>
        <mxCell id="2hZfPi2KIrLaFZIVcfu8-71" value="" style="rounded=0;whiteSpace=wrap;html=1;" parent="1" vertex="1">
          <mxGeometry x="280" y="760" width="80" height="40" as="geometry" />
        </mxCell>
        <mxCell id="2hZfPi2KIrLaFZIVcfu8-72" value="1 byte" style="text;html=1;strokeColor=none;fillColor=none;align=center;verticalAlign=middle;whiteSpace=wrap;rounded=0;" parent="1" vertex="1">
          <mxGeometry x="280" y="800" width="80" height="20" as="geometry" />
        </mxCell>
        <mxCell id="2hZfPi2KIrLaFZIVcfu8-74" value="&lt;i&gt;$other_user_public_key&lt;/i&gt;" style="rounded=0;whiteSpace=wrap;html=1;align=center;" parent="1" vertex="1">
          <mxGeometry x="440" y="760" width="240" height="40" as="geometry" />
        </mxCell>
        <mxCell id="2hZfPi2KIrLaFZIVcfu8-75" value="public key" style="text;html=1;strokeColor=none;fillColor=none;align=center;verticalAlign=middle;whiteSpace=wrap;rounded=0;" parent="1" vertex="1">
          <mxGeometry x="440" y="740" width="240" height="20" as="geometry" />
        </mxCell>
        <mxCell id="2hZfPi2KIrLaFZIVcfu8-76" value="&lt;i&gt;$other_user_ip_address_as_string&lt;/i&gt;" style="rounded=0;whiteSpace=wrap;html=1;align=center;" parent="1" vertex="1">
          <mxGeometry x="680" y="760" width="320" height="40" as="geometry" />
        </mxCell>
        <mxCell id="2hZfPi2KIrLaFZIVcfu8-77" value="ip address" style="text;html=1;strokeColor=none;fillColor=none;align=center;verticalAlign=middle;whiteSpace=wrap;rounded=0;" parent="1" vertex="1">
          <mxGeometry x="680" y="740" width="320" height="20" as="geometry" />
        </mxCell>
        <mxCell id="2hZfPi2KIrLaFZIVcfu8-79" value="&lt;i&gt;&lt;b&gt;DH_message&lt;/b&gt;&lt;/i&gt;" style="text;html=1;strokeColor=none;fillColor=none;align=center;verticalAlign=middle;whiteSpace=wrap;rounded=0;" parent="1" vertex="1">
          <mxGeometry x="-40" y="890" width="200" height="20" as="geometry" />
        </mxCell>
        <mxCell id="2hZfPi2KIrLaFZIVcfu8-80" value="opcode:" style="text;html=1;strokeColor=none;fillColor=none;align=center;verticalAlign=middle;whiteSpace=wrap;rounded=0;" parent="1" vertex="1">
          <mxGeometry x="200" y="860" width="80" height="20" as="geometry" />
        </mxCell>
        <mxCell id="2hZfPi2KIrLaFZIVcfu8-81" value="7" style="rounded=0;whiteSpace=wrap;html=1;" parent="1" vertex="1">
          <mxGeometry x="200" y="880" width="80" height="40" as="geometry" />
        </mxCell>
        <mxCell id="2hZfPi2KIrLaFZIVcfu8-82" value="1 byte" style="text;html=1;strokeColor=none;fillColor=none;align=center;verticalAlign=middle;whiteSpace=wrap;rounded=0;" parent="1" vertex="1">
          <mxGeometry x="200" y="920" width="80" height="20" as="geometry" />
        </mxCell>
        <mxCell id="2hZfPi2KIrLaFZIVcfu8-86" value="&lt;i&gt;&lt;b&gt;challenge_refused:&lt;/b&gt;&lt;/i&gt;" style="text;html=1;strokeColor=none;fillColor=none;align=center;verticalAlign=middle;whiteSpace=wrap;rounded=0;" parent="1" vertex="1">
          <mxGeometry x="-40" y="1010" width="200" height="20" as="geometry" />
        </mxCell>
        <mxCell id="2hZfPi2KIrLaFZIVcfu8-87" value="opcode:" style="text;html=1;strokeColor=none;fillColor=none;align=center;verticalAlign=middle;whiteSpace=wrap;rounded=0;" parent="1" vertex="1">
          <mxGeometry x="200" y="980" width="80" height="20" as="geometry" />
        </mxCell>
        <mxCell id="2hZfPi2KIrLaFZIVcfu8-88" value="8" style="rounded=0;whiteSpace=wrap;html=1;" parent="1" vertex="1">
          <mxGeometry x="200" y="1000" width="80" height="40" as="geometry" />
        </mxCell>
        <mxCell id="2hZfPi2KIrLaFZIVcfu8-89" value="1 byte" style="text;html=1;strokeColor=none;fillColor=none;align=center;verticalAlign=middle;whiteSpace=wrap;rounded=0;" parent="1" vertex="1">
          <mxGeometry x="200" y="1040" width="80" height="20" as="geometry" />
        </mxCell>
        <mxCell id="2hZfPi2KIrLaFZIVcfu8-90" value="seq. #" style="text;html=1;strokeColor=none;fillColor=none;align=center;verticalAlign=middle;whiteSpace=wrap;rounded=0;" parent="1" vertex="1">
          <mxGeometry x="280" y="980" width="80" height="20" as="geometry" />
        </mxCell>
        <mxCell id="2hZfPi2KIrLaFZIVcfu8-91" value="" style="rounded=0;whiteSpace=wrap;html=1;" parent="1" vertex="1">
          <mxGeometry x="280" y="1000" width="80" height="40" as="geometry" />
        </mxCell>
        <mxCell id="2hZfPi2KIrLaFZIVcfu8-92" value="1 byte" style="text;html=1;strokeColor=none;fillColor=none;align=center;verticalAlign=middle;whiteSpace=wrap;rounded=0;" parent="1" vertex="1">
          <mxGeometry x="280" y="1040" width="80" height="20" as="geometry" />
        </mxCell>
        <mxCell id="2hZfPi2KIrLaFZIVcfu8-93" value="challenge #" style="text;html=1;strokeColor=none;fillColor=none;align=center;verticalAlign=middle;whiteSpace=wrap;rounded=0;" parent="1" vertex="1">
          <mxGeometry x="360" y="980" width="240" height="20" as="geometry" />
        </mxCell>
        <mxCell id="2hZfPi2KIrLaFZIVcfu8-94" value="" style="rounded=0;whiteSpace=wrap;html=1;" parent="1" vertex="1">
          <mxGeometry x="360" y="1000" width="240" height="40" as="geometry" />
        </mxCell>
        <mxCell id="2hZfPi2KIrLaFZIVcfu8-95" value="4 byte" style="text;html=1;strokeColor=none;fillColor=none;align=center;verticalAlign=middle;whiteSpace=wrap;rounded=0;" parent="1" vertex="1">
          <mxGeometry x="360" y="1040" width="240" height="20" as="geometry" />
        </mxCell>
        <mxCell id="2hZfPi2KIrLaFZIVcfu8-96" value="&lt;i&gt;&lt;b&gt;challenge_unavailable:&lt;/b&gt;&lt;/i&gt;" style="text;html=1;strokeColor=none;fillColor=none;align=center;verticalAlign=middle;whiteSpace=wrap;rounded=0;" parent="1" vertex="1">
          <mxGeometry x="-40" y="1130" width="200" height="20" as="geometry" />
        </mxCell>
        <mxCell id="2hZfPi2KIrLaFZIVcfu8-97" value="opcode:" style="text;html=1;strokeColor=none;fillColor=none;align=center;verticalAlign=middle;whiteSpace=wrap;rounded=0;" parent="1" vertex="1">
          <mxGeometry x="200" y="1100" width="80" height="20" as="geometry" />
        </mxCell>
        <mxCell id="2hZfPi2KIrLaFZIVcfu8-98" value="9" style="rounded=0;whiteSpace=wrap;html=1;" parent="1" vertex="1">
          <mxGeometry x="200" y="1120" width="80" height="40" as="geometry" />
        </mxCell>
        <mxCell id="2hZfPi2KIrLaFZIVcfu8-99" value="1 byte" style="text;html=1;strokeColor=none;fillColor=none;align=center;verticalAlign=middle;whiteSpace=wrap;rounded=0;" parent="1" vertex="1">
          <mxGeometry x="200" y="1160" width="80" height="20" as="geometry" />
        </mxCell>
        <mxCell id="2hZfPi2KIrLaFZIVcfu8-100" value="seq. #" style="text;html=1;strokeColor=none;fillColor=none;align=center;verticalAlign=middle;whiteSpace=wrap;rounded=0;" parent="1" vertex="1">
          <mxGeometry x="280" y="1100" width="80" height="20" as="geometry" />
        </mxCell>
        <mxCell id="2hZfPi2KIrLaFZIVcfu8-101" value="" style="rounded=0;whiteSpace=wrap;html=1;" parent="1" vertex="1">
          <mxGeometry x="280" y="1120" width="80" height="40" as="geometry" />
        </mxCell>
        <mxCell id="2hZfPi2KIrLaFZIVcfu8-102" value="1 byte" style="text;html=1;strokeColor=none;fillColor=none;align=center;verticalAlign=middle;whiteSpace=wrap;rounded=0;" parent="1" vertex="1">
          <mxGeometry x="280" y="1160" width="80" height="20" as="geometry" />
        </mxCell>
        <mxCell id="2hZfPi2KIrLaFZIVcfu8-103" value="&lt;b&gt;&lt;i&gt;ACK:&lt;/i&gt;&lt;/b&gt;" style="text;html=1;strokeColor=none;fillColor=none;align=center;verticalAlign=middle;whiteSpace=wrap;rounded=0;" parent="1" vertex="1">
          <mxGeometry x="-40" y="1410" width="200" height="20" as="geometry" />
        </mxCell>
        <mxCell id="2hZfPi2KIrLaFZIVcfu8-104" value="opcode:" style="text;html=1;strokeColor=none;fillColor=none;align=center;verticalAlign=middle;whiteSpace=wrap;rounded=0;" parent="1" vertex="1">
          <mxGeometry x="200" y="1380" width="80" height="20" as="geometry" />
        </mxCell>
        <mxCell id="2hZfPi2KIrLaFZIVcfu8-105" value="11" style="rounded=0;whiteSpace=wrap;html=1;" parent="1" vertex="1">
          <mxGeometry x="200" y="1400" width="80" height="40" as="geometry" />
        </mxCell>
        <mxCell id="2hZfPi2KIrLaFZIVcfu8-106" value="1 byte" style="text;html=1;strokeColor=none;fillColor=none;align=center;verticalAlign=middle;whiteSpace=wrap;rounded=0;" parent="1" vertex="1">
          <mxGeometry x="200" y="1440" width="80" height="20" as="geometry" />
        </mxCell>
        <mxCell id="2hZfPi2KIrLaFZIVcfu8-107" value="seq. #" style="text;html=1;strokeColor=none;fillColor=none;align=center;verticalAlign=middle;whiteSpace=wrap;rounded=0;" parent="1" vertex="1">
          <mxGeometry x="280" y="1380" width="80" height="20" as="geometry" />
        </mxCell>
        <mxCell id="2hZfPi2KIrLaFZIVcfu8-108" value="" style="rounded=0;whiteSpace=wrap;html=1;" parent="1" vertex="1">
          <mxGeometry x="280" y="1400" width="80" height="40" as="geometry" />
        </mxCell>
        <mxCell id="2hZfPi2KIrLaFZIVcfu8-109" value="1 byte" style="text;html=1;strokeColor=none;fillColor=none;align=center;verticalAlign=middle;whiteSpace=wrap;rounded=0;" parent="1" vertex="1">
          <mxGeometry x="280" y="1440" width="80" height="20" as="geometry" />
        </mxCell>
        <mxCell id="2hZfPi2KIrLaFZIVcfu8-110" value="&lt;b&gt;&lt;i&gt;update_status:&lt;/i&gt;&lt;/b&gt;" style="text;html=1;strokeColor=none;fillColor=none;align=center;verticalAlign=middle;whiteSpace=wrap;rounded=0;" parent="1" vertex="1">
          <mxGeometry x="-40" y="1250" width="200" height="20" as="geometry" />
        </mxCell>
        <mxCell id="2hZfPi2KIrLaFZIVcfu8-111" value="10" style="rounded=0;whiteSpace=wrap;html=1;" parent="1" vertex="1">
          <mxGeometry x="200" y="1240" width="80" height="40" as="geometry" />
        </mxCell>
        <mxCell id="2hZfPi2KIrLaFZIVcfu8-112" value="opcode:" style="text;html=1;strokeColor=none;fillColor=none;align=center;verticalAlign=middle;whiteSpace=wrap;rounded=0;" parent="1" vertex="1">
          <mxGeometry x="200" y="1220" width="80" height="20" as="geometry" />
        </mxCell>
        <mxCell id="2hZfPi2KIrLaFZIVcfu8-113" value="1 byte" style="text;html=1;strokeColor=none;fillColor=none;align=center;verticalAlign=middle;whiteSpace=wrap;rounded=0;" parent="1" vertex="1">
          <mxGeometry x="200" y="1280" width="80" height="20" as="geometry" />
        </mxCell>
        <mxCell id="2hZfPi2KIrLaFZIVcfu8-114" value="" style="rounded=0;whiteSpace=wrap;html=1;" parent="1" vertex="1">
          <mxGeometry x="280" y="1240" width="80" height="40" as="geometry" />
        </mxCell>
        <mxCell id="2hZfPi2KIrLaFZIVcfu8-115" value="seq. #" style="text;html=1;strokeColor=none;fillColor=none;align=center;verticalAlign=middle;whiteSpace=wrap;rounded=0;" parent="1" vertex="1">
          <mxGeometry x="280" y="1220" width="80" height="20" as="geometry" />
        </mxCell>
        <mxCell id="2hZfPi2KIrLaFZIVcfu8-116" value="1 byte" style="text;html=1;strokeColor=none;fillColor=none;align=center;verticalAlign=middle;whiteSpace=wrap;rounded=0;" parent="1" vertex="1">
          <mxGeometry x="280" y="1280" width="80" height="20" as="geometry" />
        </mxCell>
        <mxCell id="2hZfPi2KIrLaFZIVcfu8-117" value="" style="rounded=0;whiteSpace=wrap;html=1;" parent="1" vertex="1">
          <mxGeometry x="440" y="1240" width="80" height="40" as="geometry" />
        </mxCell>
        <mxCell id="2hZfPi2KIrLaFZIVcfu8-118" value="len" style="text;html=1;strokeColor=none;fillColor=none;align=center;verticalAlign=middle;whiteSpace=wrap;rounded=0;" parent="1" vertex="1">
          <mxGeometry x="440" y="1220" width="80" height="20" as="geometry" />
        </mxCell>
        <mxCell id="2hZfPi2KIrLaFZIVcfu8-119" value="1 byte" style="text;html=1;strokeColor=none;fillColor=none;align=center;verticalAlign=middle;whiteSpace=wrap;rounded=0;" parent="1" vertex="1">
          <mxGeometry x="440" y="1280" width="80" height="20" as="geometry" />
        </mxCell>
        <mxCell id="2hZfPi2KIrLaFZIVcfu8-120" value="&lt;i&gt;$username&lt;/i&gt;" style="rounded=0;whiteSpace=wrap;html=1;" parent="1" vertex="1">
          <mxGeometry x="520" y="1240" width="170" height="40" as="geometry" />
        </mxCell>
        <mxCell id="2hZfPi2KIrLaFZIVcfu8-121" value="data" style="text;html=1;strokeColor=none;fillColor=none;align=center;verticalAlign=middle;whiteSpace=wrap;rounded=0;" parent="1" vertex="1">
          <mxGeometry x="520" y="1220" width="170" height="20" as="geometry" />
        </mxCell>
        <mxCell id="2hZfPi2KIrLaFZIVcfu8-122" value="" style="rounded=0;whiteSpace=wrap;html=1;align=center;" parent="1" vertex="1">
          <mxGeometry x="360" y="1240" width="80" height="40" as="geometry" />
        </mxCell>
        <mxCell id="2hZfPi2KIrLaFZIVcfu8-123" value="status_code" style="text;html=1;strokeColor=none;fillColor=none;align=center;verticalAlign=middle;whiteSpace=wrap;rounded=0;" parent="1" vertex="1">
          <mxGeometry x="360" y="1220" width="80" height="20" as="geometry" />
        </mxCell>
        <mxCell id="2hZfPi2KIrLaFZIVcfu8-125" value="" style="endArrow=classic;html=1;" parent="1" source="2hZfPi2KIrLaFZIVcfu8-122" edge="1">
          <mxGeometry width="50" height="50" relative="1" as="geometry">
            <mxPoint x="590" y="1380" as="sourcePoint" />
            <mxPoint x="760" y="1320" as="targetPoint" />
            <Array as="points">
              <mxPoint x="400" y="1320" />
            </Array>
          </mxGeometry>
        </mxCell>
        <mxCell id="2hZfPi2KIrLaFZIVcfu8-124" value="1 byte" style="text;html=1;align=center;verticalAlign=middle;whiteSpace=wrap;rounded=0;fillColor=#FFFFFF;" parent="1" vertex="1">
          <mxGeometry x="360" y="1280" width="80" height="20" as="geometry" />
        </mxCell>
        <mxCell id="2hZfPi2KIrLaFZIVcfu8-127" value="satus_code" style="swimlane;fontStyle=0;childLayout=stackLayout;horizontal=1;startSize=26;fillColor=none;horizontalStack=0;resizeParent=1;resizeParentMax=0;resizeLast=0;collapsible=1;marginBottom=0;align=center;" parent="1" vertex="1">
          <mxGeometry x="760" y="1306" width="140" height="104" as="geometry">
            <mxRectangle x="760" y="1306" width="100" height="26" as="alternateBounds" />
          </mxGeometry>
        </mxCell>
        <mxCell id="2hZfPi2KIrLaFZIVcfu8-128" value="0 = idle" style="text;strokeColor=none;fillColor=none;align=center;verticalAlign=top;spacingLeft=4;spacingRight=4;overflow=hidden;rotatable=0;points=[[0,0.5],[1,0.5]];portConstraint=eastwest;" parent="2hZfPi2KIrLaFZIVcfu8-127" vertex="1">
          <mxGeometry y="26" width="140" height="26" as="geometry" />
        </mxCell>
        <mxCell id="2hZfPi2KIrLaFZIVcfu8-129" value="1 = challenging" style="text;strokeColor=none;fillColor=none;align=center;verticalAlign=top;spacingLeft=4;spacingRight=4;overflow=hidden;rotatable=0;points=[[0,0.5],[1,0.5]];portConstraint=eastwest;" parent="2hZfPi2KIrLaFZIVcfu8-127" vertex="1">
          <mxGeometry y="52" width="140" height="26" as="geometry" />
        </mxCell>
        <mxCell id="2hZfPi2KIrLaFZIVcfu8-130" value="2 = waiting" style="text;strokeColor=none;fillColor=none;align=center;verticalAlign=top;spacingLeft=4;spacingRight=4;overflow=hidden;rotatable=0;points=[[0,0.5],[1,0.5]];portConstraint=eastwest;" parent="2hZfPi2KIrLaFZIVcfu8-127" vertex="1">
          <mxGeometry y="78" width="140" height="26" as="geometry" />
        </mxCell>
        <mxCell id="2hZfPi2KIrLaFZIVcfu8-131" value="&lt;i&gt;&lt;b&gt;exit:&lt;/b&gt;&lt;/i&gt;" style="text;html=1;strokeColor=none;fillColor=none;align=center;verticalAlign=middle;whiteSpace=wrap;rounded=0;" parent="1" vertex="1">
          <mxGeometry x="-40" y="1530" width="200" height="20" as="geometry" />
        </mxCell>
        <mxCell id="2hZfPi2KIrLaFZIVcfu8-132" value="opcode:" style="text;html=1;strokeColor=none;fillColor=none;align=center;verticalAlign=middle;whiteSpace=wrap;rounded=0;" parent="1" vertex="1">
          <mxGeometry x="200" y="1500" width="80" height="20" as="geometry" />
        </mxCell>
        <mxCell id="2hZfPi2KIrLaFZIVcfu8-133" value="12" style="rounded=0;whiteSpace=wrap;html=1;" parent="1" vertex="1">
          <mxGeometry x="200" y="1520" width="80" height="40" as="geometry" />
        </mxCell>
        <mxCell id="2hZfPi2KIrLaFZIVcfu8-134" value="1 byte" style="text;html=1;strokeColor=none;fillColor=none;align=center;verticalAlign=middle;whiteSpace=wrap;rounded=0;" parent="1" vertex="1">
          <mxGeometry x="200" y="1560" width="80" height="20" as="geometry" />
        </mxCell>
        <mxCell id="2hZfPi2KIrLaFZIVcfu8-135" value="seq. #" style="text;html=1;strokeColor=none;fillColor=none;align=center;verticalAlign=middle;whiteSpace=wrap;rounded=0;" parent="1" vertex="1">
          <mxGeometry x="280" y="1500" width="80" height="20" as="geometry" />
        </mxCell>
        <mxCell id="2hZfPi2KIrLaFZIVcfu8-136" value="" style="rounded=0;whiteSpace=wrap;html=1;" parent="1" vertex="1">
          <mxGeometry x="280" y="1520" width="80" height="40" as="geometry" />
        </mxCell>
        <mxCell id="2hZfPi2KIrLaFZIVcfu8-137" value="1 byte" style="text;html=1;strokeColor=none;fillColor=none;align=center;verticalAlign=middle;whiteSpace=wrap;rounded=0;" parent="1" vertex="1">
          <mxGeometry x="280" y="1560" width="80" height="20" as="geometry" />
        </mxCell>
        <mxCell id="2hZfPi2KIrLaFZIVcfu8-138" value="len" style="text;html=1;strokeColor=none;fillColor=none;align=center;verticalAlign=middle;whiteSpace=wrap;rounded=0;" parent="1" vertex="1">
          <mxGeometry x="360" y="1500" width="80" height="20" as="geometry" />
        </mxCell>
        <mxCell id="2hZfPi2KIrLaFZIVcfu8-139" value="" style="rounded=0;whiteSpace=wrap;html=1;" parent="1" vertex="1">
          <mxGeometry x="360" y="1520" width="80" height="40" as="geometry" />
        </mxCell>
        <mxCell id="2hZfPi2KIrLaFZIVcfu8-140" value="1 byte" style="text;html=1;strokeColor=none;fillColor=none;align=center;verticalAlign=middle;whiteSpace=wrap;rounded=0;" parent="1" vertex="1">
          <mxGeometry x="360" y="1560" width="80" height="20" as="geometry" />
        </mxCell>
        <mxCell id="2hZfPi2KIrLaFZIVcfu8-141" value="data" style="text;html=1;strokeColor=none;fillColor=none;align=center;verticalAlign=middle;whiteSpace=wrap;rounded=0;" parent="1" vertex="1">
          <mxGeometry x="440" y="1500" width="170" height="20" as="geometry" />
        </mxCell>
        <mxCell id="2hZfPi2KIrLaFZIVcfu8-142" value="&lt;i&gt;$username&lt;/i&gt;" style="rounded=0;whiteSpace=wrap;html=1;" parent="1" vertex="1">
          <mxGeometry x="440" y="1520" width="170" height="40" as="geometry" />
        </mxCell>
        <mxCell id="2hZfPi2KIrLaFZIVcfu8-143" value="&lt;i&gt;&lt;b&gt;malformed_message:&lt;/b&gt;&lt;/i&gt;" style="text;html=1;strokeColor=none;fillColor=none;align=center;verticalAlign=middle;whiteSpace=wrap;rounded=0;" parent="1" vertex="1">
          <mxGeometry y="1650" width="200" height="20" as="geometry" />
        </mxCell>
        <mxCell id="2hZfPi2KIrLaFZIVcfu8-144" value="opcode:" style="text;html=1;strokeColor=none;fillColor=none;align=center;verticalAlign=middle;whiteSpace=wrap;rounded=0;" parent="1" vertex="1">
          <mxGeometry x="200" y="1620" width="80" height="20" as="geometry" />
        </mxCell>
        <mxCell id="2hZfPi2KIrLaFZIVcfu8-145" value="13" style="rounded=0;whiteSpace=wrap;html=1;" parent="1" vertex="1">
          <mxGeometry x="200" y="1640" width="80" height="40" as="geometry" />
        </mxCell>
        <mxCell id="2hZfPi2KIrLaFZIVcfu8-146" value="1 byte" style="text;html=1;strokeColor=none;fillColor=none;align=center;verticalAlign=middle;whiteSpace=wrap;rounded=0;" parent="1" vertex="1">
          <mxGeometry x="200" y="1680" width="80" height="20" as="geometry" />
        </mxCell>
        <mxCell id="2hZfPi2KIrLaFZIVcfu8-147" value="seq. #" style="text;html=1;strokeColor=none;fillColor=none;align=center;verticalAlign=middle;whiteSpace=wrap;rounded=0;" parent="1" vertex="1">
          <mxGeometry x="280" y="1620" width="80" height="20" as="geometry" />
        </mxCell>
        <mxCell id="2hZfPi2KIrLaFZIVcfu8-148" value="" style="rounded=0;whiteSpace=wrap;html=1;" parent="1" vertex="1">
          <mxGeometry x="280" y="1640" width="80" height="40" as="geometry" />
        </mxCell>
        <mxCell id="2hZfPi2KIrLaFZIVcfu8-149" value="1 byte" style="text;html=1;strokeColor=none;fillColor=none;align=center;verticalAlign=middle;whiteSpace=wrap;rounded=0;" parent="1" vertex="1">
          <mxGeometry x="280" y="1680" width="80" height="20" as="geometry" />
        </mxCell>
        <mxCell id="uPbUfzAHcrzxbHmuF8gr-1" value="len" style="text;html=1;strokeColor=none;fillColor=none;align=center;verticalAlign=middle;whiteSpace=wrap;rounded=0;" parent="1" vertex="1">
          <mxGeometry x="360" y="380" width="80" height="20" as="geometry" />
        </mxCell>
        <mxCell id="uPbUfzAHcrzxbHmuF8gr-2" value="" style="rounded=0;whiteSpace=wrap;html=1;" parent="1" vertex="1">
          <mxGeometry x="360" y="400" width="80" height="40" as="geometry" />
        </mxCell>
        <mxCell id="uPbUfzAHcrzxbHmuF8gr-3" value="1 byte" style="text;html=1;strokeColor=none;fillColor=none;align=center;verticalAlign=middle;whiteSpace=wrap;rounded=0;" parent="1" vertex="1">
          <mxGeometry x="360" y="440" width="80" height="20" as="geometry" />
        </mxCell>
        <mxCell id="uPbUfzAHcrzxbHmuF8gr-5" value="" style="rounded=0;whiteSpace=wrap;html=1;" parent="1" vertex="1">
          <mxGeometry x="440" y="400" width="10" height="40" as="geometry" />
        </mxCell>
        <mxCell id="uPbUfzAHcrzxbHmuF8gr-6" value="1 byte" style="text;html=1;strokeColor=none;fillColor=none;align=center;verticalAlign=middle;whiteSpace=wrap;rounded=0;" parent="1" vertex="1">
          <mxGeometry x="440" y="440" width="80" height="20" as="geometry" />
        </mxCell>
        <mxCell id="uPbUfzAHcrzxbHmuF8gr-7" value="" style="rounded=0;whiteSpace=wrap;html=1;" parent="1" vertex="1">
          <mxGeometry x="450" y="400" width="10" height="40" as="geometry" />
        </mxCell>
        <mxCell id="uPbUfzAHcrzxbHmuF8gr-8" value="" style="rounded=0;whiteSpace=wrap;html=1;" parent="1" vertex="1">
          <mxGeometry x="460" y="400" width="10" height="40" as="geometry" />
        </mxCell>
        <mxCell id="uPbUfzAHcrzxbHmuF8gr-9" value="" style="rounded=0;whiteSpace=wrap;html=1;" parent="1" vertex="1">
          <mxGeometry x="470" y="400" width="10" height="40" as="geometry" />
        </mxCell>
        <mxCell id="uPbUfzAHcrzxbHmuF8gr-10" value="" style="rounded=0;whiteSpace=wrap;html=1;" parent="1" vertex="1">
          <mxGeometry x="480" y="400" width="10" height="40" as="geometry" />
        </mxCell>
        <mxCell id="uPbUfzAHcrzxbHmuF8gr-11" value="" style="rounded=0;whiteSpace=wrap;html=1;" parent="1" vertex="1">
          <mxGeometry x="490" y="400" width="10" height="40" as="geometry" />
        </mxCell>
        <mxCell id="uPbUfzAHcrzxbHmuF8gr-12" value="" style="rounded=0;whiteSpace=wrap;html=1;" parent="1" vertex="1">
          <mxGeometry x="500" y="400" width="10" height="40" as="geometry" />
        </mxCell>
        <mxCell id="uPbUfzAHcrzxbHmuF8gr-13" value="" style="rounded=0;whiteSpace=wrap;html=1;fillColor=#FF0000;strokeColor=#000000;" parent="1" vertex="1">
          <mxGeometry x="510" y="400" width="10" height="40" as="geometry" />
        </mxCell>
        <mxCell id="uPbUfzAHcrzxbHmuF8gr-14" value="Flag Last" style="text;html=1;strokeColor=none;fillColor=none;align=center;verticalAlign=middle;whiteSpace=wrap;rounded=0;" parent="1" vertex="1">
          <mxGeometry x="440" y="380" width="80" height="20" as="geometry" />
        </mxCell>
        <mxCell id="kAyrVkeBhx2zqWbpPaEb-1" value="1 byte" style="text;html=1;strokeColor=none;fillColor=none;align=center;verticalAlign=middle;whiteSpace=wrap;rounded=0;" parent="1" vertex="1">
          <mxGeometry x="360" y="800" width="80" height="20" as="geometry" />
        </mxCell>
        <mxCell id="kAyrVkeBhx2zqWbpPaEb-2" value="" style="rounded=0;whiteSpace=wrap;html=1;" parent="1" vertex="1">
          <mxGeometry x="360" y="760" width="80" height="40" as="geometry" />
        </mxCell>
        <mxCell id="kAyrVkeBhx2zqWbpPaEb-3" value="len" style="text;html=1;strokeColor=none;fillColor=none;align=center;verticalAlign=middle;whiteSpace=wrap;rounded=0;" parent="1" vertex="1">
          <mxGeometry x="360" y="740" width="80" height="20" as="geometry" />
        </mxCell>
        <mxCell id="5Lxp2N-QDPpW90kFyTmF-2" value="" style="rounded=0;whiteSpace=wrap;html=1;" parent="1" vertex="1">
          <mxGeometry x="280" y="280" width="600" height="40" as="geometry" />
        </mxCell>
        <mxCell id="5Lxp2N-QDPpW90kFyTmF-4" value="certificate_len byte" style="text;html=1;strokeColor=none;fillColor=none;align=center;verticalAlign=middle;whiteSpace=wrap;rounded=0;" parent="1" vertex="1">
          <mxGeometry x="280" y="320" width="600" height="20" as="geometry" />
        </mxCell>
        <mxCell id="5Lxp2N-QDPpW90kFyTmF-5" value="certificate:" style="text;html=1;strokeColor=none;fillColor=none;align=center;verticalAlign=middle;whiteSpace=wrap;rounded=0;" parent="1" vertex="1">
          <mxGeometry x="280" y="260" width="600" height="20" as="geometry" />
        </mxCell>
        <mxCell id="4vLKjQ0nZQjqVHN2I53n-20" style="edgeStyle=orthogonalEdgeStyle;rounded=0;orthogonalLoop=1;jettySize=auto;html=1;exitX=1;exitY=0.5;exitDx=0;exitDy=0;entryX=0;entryY=0.5;entryDx=0;entryDy=0;dashed=1;dashPattern=1 4;endArrow=none;endFill=0;" parent="1" source="4vLKjQ0nZQjqVHN2I53n-1" target="4vLKjQ0nZQjqVHN2I53n-18" edge="1">
          <mxGeometry relative="1" as="geometry" />
        </mxCell>
        <mxCell id="4vLKjQ0nZQjqVHN2I53n-1" value="" style="rounded=0;whiteSpace=wrap;html=1;" parent="1" vertex="1">
          <mxGeometry x="280" y="880" width="240" height="40" as="geometry" />
        </mxCell>
        <mxCell id="4vLKjQ0nZQjqVHN2I53n-2" value="public key:" style="text;html=1;strokeColor=none;fillColor=none;align=center;verticalAlign=middle;whiteSpace=wrap;rounded=0;" parent="1" vertex="1">
          <mxGeometry x="280" y="860" width="280" height="20" as="geometry" />
        </mxCell>
        <mxCell id="4vLKjQ0nZQjqVHN2I53n-14" style="edgeStyle=orthogonalEdgeStyle;rounded=0;orthogonalLoop=1;jettySize=auto;html=1;exitX=1;exitY=0.5;exitDx=0;exitDy=0;dashed=1;dashPattern=1 4;endArrow=none;endFill=0;" parent="1" source="4vLKjQ0nZQjqVHN2I53n-4" edge="1">
          <mxGeometry relative="1" as="geometry">
            <mxPoint x="1040" y="180" as="targetPoint" />
          </mxGeometry>
        </mxCell>
        <mxCell id="4vLKjQ0nZQjqVHN2I53n-4" value="" style="rounded=0;whiteSpace=wrap;html=1;" parent="1" vertex="1">
          <mxGeometry x="760" y="160" width="240" height="40" as="geometry" />
        </mxCell>
        <mxCell id="4vLKjQ0nZQjqVHN2I53n-11" value="signature" style="text;html=1;strokeColor=none;fillColor=none;align=center;verticalAlign=middle;whiteSpace=wrap;rounded=0;" parent="1" vertex="1">
          <mxGeometry x="760" y="140" width="280" height="20" as="geometry" />
        </mxCell>
        <mxCell id="4vLKjQ0nZQjqVHN2I53n-13" value="256 byte" style="text;html=1;strokeColor=none;fillColor=none;align=center;verticalAlign=middle;whiteSpace=wrap;rounded=0;" parent="1" vertex="1">
          <mxGeometry x="760" y="200" width="280" height="20" as="geometry" />
        </mxCell>
        <mxCell id="4vLKjQ0nZQjqVHN2I53n-15" value="len_public_key byte" style="text;html=1;strokeColor=none;fillColor=none;align=center;verticalAlign=middle;whiteSpace=wrap;rounded=0;" parent="1" vertex="1">
          <mxGeometry x="280" y="920" width="280" height="20" as="geometry" />
        </mxCell>
        <mxCell id="4vLKjQ0nZQjqVHN2I53n-17" value="256 byte" style="text;html=1;strokeColor=none;fillColor=none;align=center;verticalAlign=middle;whiteSpace=wrap;rounded=0;" parent="1" vertex="1">
          <mxGeometry x="560" y="920" width="280" height="20" as="geometry" />
        </mxCell>
        <mxCell id="kRsyafSgFgkC47CzxUfz-10" style="edgeStyle=orthogonalEdgeStyle;rounded=0;orthogonalLoop=1;jettySize=auto;html=1;exitX=1;exitY=0.5;exitDx=0;exitDy=0;entryX=0;entryY=0.5;entryDx=0;entryDy=0;dashed=1;endArrow=none;endFill=0;" edge="1" parent="1" source="4vLKjQ0nZQjqVHN2I53n-18" target="kRsyafSgFgkC47CzxUfz-8">
          <mxGeometry relative="1" as="geometry" />
        </mxCell>
        <mxCell id="4vLKjQ0nZQjqVHN2I53n-18" value="" style="rounded=0;whiteSpace=wrap;html=1;" parent="1" vertex="1">
          <mxGeometry x="560" y="880" width="240" height="40" as="geometry" />
        </mxCell>
        <mxCell id="4vLKjQ0nZQjqVHN2I53n-19" value="signature:" style="text;html=1;strokeColor=none;fillColor=none;align=center;verticalAlign=middle;whiteSpace=wrap;rounded=0;" parent="1" vertex="1">
          <mxGeometry x="560" y="860" width="280" height="20" as="geometry" />
        </mxCell>
        <mxCell id="4vLKjQ0nZQjqVHN2I53n-26" value="&lt;b&gt;&lt;i&gt;DH_message_info&lt;/i&gt;&lt;/b&gt;" style="text;html=1;strokeColor=none;fillColor=none;align=center;verticalAlign=middle;whiteSpace=wrap;rounded=0;" parent="1" vertex="1">
          <mxGeometry x="80" y="1770" width="40" height="20" as="geometry" />
        </mxCell>
        <mxCell id="4vLKjQ0nZQjqVHN2I53n-27" value="14" style="rounded=0;whiteSpace=wrap;html=1;" parent="1" vertex="1">
          <mxGeometry x="200" y="1760" width="80" height="40" as="geometry" />
        </mxCell>
        <mxCell id="4vLKjQ0nZQjqVHN2I53n-28" value="opcode:" style="text;html=1;strokeColor=none;fillColor=none;align=center;verticalAlign=middle;whiteSpace=wrap;rounded=0;" parent="1" vertex="1">
          <mxGeometry x="200" y="1740" width="80" height="20" as="geometry" />
        </mxCell>
        <mxCell id="4vLKjQ0nZQjqVHN2I53n-29" value="1 byte" style="text;html=1;strokeColor=none;fillColor=none;align=center;verticalAlign=middle;whiteSpace=wrap;rounded=0;" parent="1" vertex="1">
          <mxGeometry x="200" y="1800" width="80" height="20" as="geometry" />
        </mxCell>
        <mxCell id="4vLKjQ0nZQjqVHN2I53n-31" value="len public key:" style="text;html=1;strokeColor=none;fillColor=none;align=center;verticalAlign=middle;whiteSpace=wrap;rounded=0;" parent="1" vertex="1">
          <mxGeometry x="280" y="1740" width="160" height="20" as="geometry" />
        </mxCell>
        <mxCell id="4vLKjQ0nZQjqVHN2I53n-32" value="" style="rounded=0;whiteSpace=wrap;html=1;" parent="1" vertex="1">
          <mxGeometry x="280" y="1760" width="160" height="40" as="geometry" />
        </mxCell>
        <mxCell id="4vLKjQ0nZQjqVHN2I53n-33" value="4 byte" style="text;html=1;strokeColor=none;fillColor=none;align=center;verticalAlign=middle;whiteSpace=wrap;rounded=0;" parent="1" vertex="1">
          <mxGeometry x="280" y="1800" width="160" height="20" as="geometry" />
        </mxCell>
        <mxCell id="4vLKjQ0nZQjqVHN2I53n-34" value="451 byte" style="text;html=1;strokeColor=none;fillColor=none;align=center;verticalAlign=middle;whiteSpace=wrap;rounded=0;" parent="1" vertex="1">
          <mxGeometry x="440" y="800" width="240" height="20" as="geometry" />
        </mxCell>
        <mxCell id="kRsyafSgFgkC47CzxUfz-3" value="random data" style="text;html=1;strokeColor=none;fillColor=none;align=center;verticalAlign=middle;whiteSpace=wrap;rounded=0;" vertex="1" parent="1">
          <mxGeometry x="440" y="1740" width="320" height="20" as="geometry" />
        </mxCell>
        <mxCell id="kRsyafSgFgkC47CzxUfz-4" value="" style="rounded=0;whiteSpace=wrap;html=1;" vertex="1" parent="1">
          <mxGeometry x="440" y="1760" width="320" height="40" as="geometry" />
        </mxCell>
        <mxCell id="kRsyafSgFgkC47CzxUfz-5" value="16 byte" style="text;html=1;strokeColor=none;fillColor=none;align=center;verticalAlign=middle;whiteSpace=wrap;rounded=0;" vertex="1" parent="1">
          <mxGeometry x="440" y="1800" width="320" height="20" as="geometry" />
        </mxCell>
        <mxCell id="kRsyafSgFgkC47CzxUfz-7" value="random data" style="text;html=1;strokeColor=none;fillColor=none;align=center;verticalAlign=middle;whiteSpace=wrap;rounded=0;" vertex="1" parent="1">
          <mxGeometry x="840" y="860" width="320" height="20" as="geometry" />
        </mxCell>
        <mxCell id="kRsyafSgFgkC47CzxUfz-8" value="" style="rounded=0;whiteSpace=wrap;html=1;" vertex="1" parent="1">
          <mxGeometry x="840" y="880" width="320" height="40" as="geometry" />
        </mxCell>
        <mxCell id="kRsyafSgFgkC47CzxUfz-9" value="16 byte" style="text;html=1;strokeColor=none;fillColor=none;align=center;verticalAlign=middle;whiteSpace=wrap;rounded=0;" vertex="1" parent="1">
          <mxGeometry x="840" y="920" width="320" height="20" as="geometry" />
        </mxCell>
      </root>
    </mxGraphModel>
  </diagram>
</mxfile>
